<svg width="24" height="24" viewBox="0 0 24 24" fill="none" xmlns="http://www.w3.org/2000/svg">
<path d="M12 4.52765C14.3558 2.41689 17.9787 2.49347 20.2426 4.75736C22.5858 7.1005 22.5858 10.8995 20.2426 13.2426L13.4142 20.0711C12.6332 20.8521 11.3668 20.8521 10.5858 20.0711L3.75736 13.2426C1.41421 10.8995 1.41421 7.1005 3.75736 4.75736C6.02125 2.49347 9.64417 2.41689 12 4.52765ZM13.1716 6.17157L12.7071 6.63604C12.3166 7.02656 11.6834 7.02656 11.2929 6.63604L10.8284 6.17157C9.26633 4.60948 6.73367 4.60948 5.17157 6.17157C3.60947 7.73367 3.60947 10.2663 5.17157 11.8284L12 18.6569L18.8284 11.8284C20.3905 10.2663 20.3905 7.73367 18.8284 6.17157C17.2663 4.60948 14.7337 4.60948 13.1716 6.17157Z" fill="#4F4F4F"/>
</svg>
