<svg width="24" height="24" viewBox="0 0 24 24" fill="none" xmlns="http://www.w3.org/2000/svg">
<path d="M12 4C14.2091 4 16 5.79086 16 8C16 10.2091 14.2091 12 12 12C9.79086 12 8 10.2091 8 8C8 5.79086 9.79086 4 12 4ZM18 8C18 4.68629 15.3137 2 12 2C8.68629 2 6 4.68629 6 8C6 11.3137 8.68629 14 12 14C15.3137 14 18 11.3137 18 8ZM16 18C17.6569 18 19 19.3431 19 21C19 21.5523 19.4477 22 20 22C20.5523 22 21 21.5523 21 21C21 18.2386 18.7614 16 16 16H8C5.23858 16 3 18.2386 3 21C3 21.5523 3.44772 22 4 22C4.55228 22 5 21.5523 5 21C5 19.3431 6.34315 18 8 18H16Z" fill="#4F4F4F"/>
</svg>
